Uma obra prima de Satoshi Kon, legenda soft su em portugues 

Video: MPEG4 Video (H264) 1280x688 23.98fps [Video]
Audio: Dolby AC3 48000Hz 6ch [Audio]
Subtitle: Advanced SubStation Alpha [Subtitle]

General
Complete name                    : K:\Filmes\Millennium Actress\Millennium.Actress.2001.HDTV.RE.720p.DD5.1.x264-MDC.mkv
Format                           : Matroska
File size                        : 2.15 GiB
Duration                         : 1h 26mn
Overall bit rate                 : 3 550 Kbps
Encoded date                     : UTC 2008-01-03 15:16:12
Writing application              : mkvmerge v2.1.0 ('Another Place To Fall') built on Aug 19 2007 13:40:07
Writing library                  : libebml v0.7.7 + libmatroska v0.8.1
Cover                            : Yes

Video
ID                               : 1
Format                           : AVC
Format/Info                      : Advanced Video Codec
Format profile                   : High@L5.1
Format settings, CABAC           : Yes
Format settings, ReFrames        : 8 frames
Codec ID                         : V_MPEG4/ISO/AVC
Duration                         : 1h 26mn
Bit rate                         : 3 105 Kbps
Width                            : 1 280 pixels
Height                           : 688 pixels
Display aspect ratio             : 1.860
Frame rate                       : 23.976 fps
Color space                      : YUV
Chroma subsampling               : 4:2:0
Bit depth                        : 8 bits
Scan type                        : Progressive
Bits/(Pixel*Frame)               : 0.147
Stream size                      : 1.83 GiB (85%)
Writing library                  : x264 core 56 svn-667C
Encoding settings                
Language                         : Japanese

Audio
ID                               : 2
Format                           : AC-3
Format/Info                      : Audio Coding 3
Mode extension                   : CM (complete main)
Codec ID                         : A_AC3
Duration                         : 1h 26mn
Bit rate mode                    : Constant
Bit rate                         : 448 Kbps
Channel(s)                       : 6 channels
Channel positions                : Front: L C R, Side: L R, LFE
Sampling rate                    : 48.0 KHz
Bit depth                        : 16 bits
Stream size                      : 278 MiB (13%)
Language                         : Japanese

Text
ID                               : 3
Format                           : ASS
Codec ID                         : S_TEXT/ASS
Codec ID/Info                    : Advanced Sub Station Alpha
Language                         : English

